<svg width="632" height="651" viewBox="0 0 632 651" fill="none" xmlns="http://www.w3.org/2000/svg">
    <path
        d="M314.958 595.519C475.558 595.519 605.751 465.317 605.751 304.705C605.751 144.092 475.558 13.8898 314.958 13.8898C154.357 13.8898 24.1648 144.092 24.1648 304.705C24.1648 465.317 154.357 595.519 314.958 595.519Z"
        fill="#006239" />
    <path
        d="M62.018 242.859L60.5005 242.597C60.5775 242.15 68.5734 197.569 99.486 163.38L100.626 164.412C70.0138 198.27 62.095 242.42 62.018 242.859Z"
        fill="white" />
    <path
        d="M104.154 135.123L102.883 134.26C103.13 133.898 127.872 98.0065 167.566 80.496L168.19 81.9057C128.912 99.2314 104.401 134.769 104.154 135.123Z"
        fill="white" />
    <path
        d="M588.773 299.428H587.232C587.232 244.138 562.143 194.025 561.889 193.525L563.26 192.831C563.515 193.332 588.773 243.761 588.773 299.428Z"
        fill="white" />
    <path
        d="M558.777 270.6C557.591 248.575 550.419 230.04 550.35 229.855L551.783 229.293C551.852 229.478 559.108 248.237 560.318 270.516L558.777 270.6Z"
        fill="white" />
    <path
        d="M13.6885 232.382L12.1787 232.059C12.2711 231.612 22.0002 187.262 56.0942 142.441L57.3191 143.374C23.433 187.924 13.781 231.943 13.6885 232.382Z"
        fill="black" />
    <path
        d="M61.8485 108.437L60.6699 107.451C60.7624 107.343 69.7981 96.5737 81.322 85.696L82.3773 86.8131C70.9151 97.6291 61.9333 108.33 61.8485 108.437Z"
        fill="black" />
    <path
        d="M99.9482 86.7591L98.7773 85.7577C98.9083 85.6036 112.111 70.3503 137.308 53.1556C160.549 37.2937 199.049 16.4783 250.513 7.34937L250.783 8.86699C199.588 17.9497 161.288 38.6572 138.179 54.4267C113.144 71.5058 100.071 86.6051 99.9482 86.7591Z"
        fill="black" />
    <path
        d="M605.011 205.589C592.047 152.741 550.912 107.12 550.496 106.666L551.636 105.626C552.052 106.08 593.449 152.002 606.506 205.219L605.011 205.589Z"
        fill="black" />
    <path
        d="M616.435 282.526C614.902 263.305 611.235 246.48 608.431 235.749L609.926 235.356C612.745 246.149 616.435 263.066 617.976 282.402L616.435 282.526Z"
        fill="black" />
    <path
        d="M624.793 355.171L623.291 354.825C624.616 349.093 625.771 342.876 626.726 336.351L628.252 336.575C627.289 343.138 626.118 349.394 624.793 355.171Z"
        fill="black" />
    <path
        d="M631.102 307.74L629.561 307.655C630.771 285.468 629.7 264.075 626.888 254.422L628.367 253.991C631.225 263.798 632.319 285.399 631.102 307.74Z"
        fill="black" />
    <path
        d="M606.86 377.928L605.396 377.458C608.1 369.046 610.396 357.336 612.222 342.676L613.747 342.869C611.913 357.621 609.595 369.416 606.86 377.928Z"
        fill="black" />
    <path
        d="M615.133 329.996L613.6 329.857C614.162 323.756 614.409 319.704 614.409 319.657L615.95 319.75C615.942 319.788 615.695 323.879 615.133 329.996Z"
        fill="black" />
    <path
        d="M459.145 39.6741C418.773 13.9745 351.155 5.14609 350.477 5.06135L350.67 3.53601C350.839 3.55912 367.963 5.76238 389.879 11.1319C410.122 16.093 438.709 24.8445 459.977 38.3799L459.145 39.6741Z"
        fill="black" />
    <path
        d="M425.467 12.0101C414.636 7.23378 389.47 1.55615 389.216 1.50222L389.555 0C389.809 0.0539259 415.121 5.76237 426.091 10.608L425.467 12.0101Z"
        fill="black" />
    <path
        d="M97.7295 527.018C94.4634 524.437 91.2358 521.733 88.1392 518.991L89.1636 517.835C92.2449 520.562 95.4494 523.251 98.6924 525.809L97.7295 527.018Z"
        fill="black" />
    <path
        d="M71.7009 502.828C27.5543 454.68 19.0962 402.141 19.0115 401.617L20.5367 401.386C20.6138 401.91 29.0179 454.002 72.8333 501.788L71.7009 502.828Z"
        fill="black" />
    <path
        d="M83.8025 498.846C67.9957 485.811 53.2211 456.067 53.0747 455.766L54.4535 455.089C54.5999 455.381 69.2358 484.833 84.7807 497.659L83.8025 498.846Z"
        fill="black" />
    <path
        d="M236.91 597.761C214.44 593.462 192.239 585.82 170.925 575.043L171.618 573.664C192.809 584.372 214.871 591.968 237.202 596.243L236.91 597.761Z"
        fill="black" />
    <path
        d="M143.702 559.166C132.656 551.77 126.47 546.285 126.408 546.231L127.433 545.083C127.495 545.137 133.611 550.561 144.557 557.887L143.702 559.166Z"
        fill="black" />
    <path
        d="M328.908 613.947L328.831 612.406C334.531 612.129 340.108 611.697 345.4 611.127L345.57 612.66C340.247 613.238 334.639 613.669 328.908 613.947Z"
        fill="black" />
    <path
        d="M308.657 614.301C273.392 613.916 243.843 608.631 243.542 608.577L243.82 607.06C244.112 607.113 273.546 612.383 308.672 612.76L308.657 614.301Z"
        fill="black" />
    <path
        d="M140.112 513.228C91.5209 479.155 73.6188 425.106 73.4417 424.566L74.9053 424.089C75.0824 424.628 92.8381 478.2 140.998 511.965L140.112 513.228Z"
        fill="white" />
    <path
        d="M246.354 572.185C208.216 565.483 170.031 539.953 169.654 539.691L170.517 538.412C170.894 538.666 208.816 564.019 246.623 570.66L246.354 572.185Z"
        fill="white" />
    <path
        d="M183.612 525.878C173.459 522.696 161.203 511.333 160.687 510.856L161.735 509.731C161.858 509.846 174.252 521.333 184.066 524.414L183.612 525.878Z"
        fill="white" />
    <path
        d="M366.083 55.5822C358.342 60.2969 324.671 80.003 300.368 98.5381C296.501 101.489 293.62 105.533 292.103 110.155C288.952 119.777 286.125 130.462 285.324 133.559C285.139 134.276 285.231 135.038 285.601 135.678C287.874 139.684 300.33 153.473 368.194 177.478L384.124 143.019C384.124 143.019 374.064 78.9014 370.975 57.4851C370.659 55.3357 368.186 54.3034 366.083 55.5822Z"
        fill="white" />
    <path
        d="M519.36 440.952L435.82 450.767C422.27 452.361 410.423 460.658 404.299 472.853L366.908 547.988C365.313 551.161 361.77 552.849 358.303 552.086L345.015 549.159C335.695 547.102 326.382 552.633 323.724 561.8L321.644 568.988C320.489 572.971 322.307 577.208 325.989 579.118L387.329 610.911C391.396 613.015 396.395 611.605 398.76 607.684L460.408 507.281L545.613 501.912L519.36 440.952Z"
        fill="#274D76" />
    <path d="M472.079 376.796L478.172 361.512L528.573 364.216L510.263 433.418L472.079 376.796Z"
        fill="#274D76" />
    <path
        d="M465.716 339.857C465.716 339.857 471.254 325.52 471.169 317.732C471.062 307.37 472.186 286.285 465.585 287.279C461.564 287.88 460.362 297.633 459.869 301.824C459.676 303.48 459.037 305.067 457.928 306.315C456.349 308.094 454.107 308.78 452.929 300.714C451.01 287.572 451.426 262.28 443.793 266.91C439.926 269.26 441.998 292.225 439.81 291.208C437.622 290.191 437.892 255.509 428.587 259.291C425.513 260.539 426.206 277.11 426.838 286.378C426.877 286.894 426.122 287.002 426.006 286.493C424.75 280.893 422.825 272.734 421.284 267.95C419.628 262.797 415.776 265.493 415.776 269.252C415.776 277.341 417.147 294.374 417.147 294.374L465.716 339.857Z"
        fill="#274D76" />
    <path
        d="M595.09 385.871L608.955 409.752L576.602 513.752C573.567 524.299 561.504 530.878 550.673 529.075L509.03 524.453C503.684 523.559 501.766 526.302 503.638 531.386L521.61 613.854C524.66 622.151 519.93 631.272 511.387 633.56L449.423 650.123C443.423 651.726 437.43 647.535 436.883 641.349L433.316 620.064C433.17 618.438 432.708 611.913 436.398 609.278C441.79 605.427 450.263 600.034 450.263 600.034C453.121 598.501 453.414 593.917 452.574 590.789L429.033 499.239C425.189 484.917 434.102 473.816 448.73 471.382C467.218 468.301 498.03 461.367 498.03 461.367L511.226 375.278C512.959 368.445 519.268 363.769 526.316 364.108L546.56 365.071L595.09 385.871Z"
        fill="#FFF3A1" />
    <path
        d="M587.136 363.238C591.345 345.413 580.307 327.551 562.483 323.342C544.659 319.132 526.798 330.171 522.589 347.996C518.381 365.821 529.418 383.684 547.242 387.893C565.066 392.102 582.927 381.064 587.136 363.238Z"
        fill="#FFF3A1" />
    <path
        d="M253.71 355.164L363.911 255.463C369.604 250.309 377.931 250.717 384.671 254.392C398.298 261.826 421.669 275.115 442.514 297.702C460.015 316.668 489.095 346.782 492.53 372.274C492.923 375.194 491.906 378.121 489.865 380.239C456.264 415.052 387.914 479.17 380.273 485.688C362.186 501.118 315.281 466.282 288.559 435.221C277.397 422.255 239.745 368.337 253.71 355.164Z"
        fill="white" />
    <path
        d="M612.73 391.972C602.5 381.903 585.014 382.504 574.23 391.749L535.999 426.569C533.904 428.311 530.799 428.041 529.035 425.969L501.951 394.306C497.591 389.199 494.957 382.851 494.418 376.164L493.439 364.092C493.37 363.276 493.177 362.475 492.854 361.72L487.916 349.009C487.238 347.26 484.881 347.044 483.857 348.616C482.47 350.75 481.715 353.962 481.715 357.151C481.715 363.314 483.163 369.97 480.852 369.97C477.771 369.97 474.112 363.915 472.548 358.23C470.753 351.69 469.86 346.474 466.694 343.577C465.261 342.268 462.711 343.131 462.319 345.311C461.402 350.334 462.457 359.794 462.542 365.163C462.565 366.704 461.186 366.673 460.763 364.801C459.461 359 455.91 341.274 455.91 341.274C455.347 338.94 452.127 338.67 451.195 340.889C448.53 347.26 449.524 361.119 450.009 366.273C450.055 366.727 449.439 366.912 449.231 366.511C447.945 364.108 445.672 359.378 444.047 353.353C443.685 352.013 441.851 351.72 441.174 352.93C439.132 356.604 440.172 365.379 440.719 368.984C440.773 369.323 440.311 369.477 440.141 369.185C439.255 367.628 438.578 366.157 437.892 364.401C437.006 362.128 435.103 363.43 434.942 364.871C434.402 369.732 434.125 376.68 436.19 385.586C436.937 388.798 439.641 398.436 451.758 412.926L516.464 484.571C528.019 499.208 542.824 495.348 551.128 489.193C571.926 473.786 610.319 435.829 610.319 435.829C624.924 423.503 621.866 400.962 612.73 391.972Z"
        fill="#FFF3A1" />
    <path
        d="M323.37 414.613C284.7 373.275 264.541 361.358 254.696 360.256C252.516 360.009 250.629 361.712 250.644 363.908C250.76 384.045 279.123 424.266 288.551 435.236C310.074 460.265 344.715 487.745 366.823 489.401C368.518 489.524 369.889 488.053 369.696 486.373C368.356 474.556 359.02 452.724 323.37 414.613Z"
        fill="#F2BDBA" />
    <path
        d="M285.932 136.24C288.991 143.605 324.132 166.261 368.179 177.486L369.488 174.658C352.395 159.675 322.846 144.637 300.907 138.975C292.865 136.903 288.482 135.94 285.932 136.24Z"
        fill="#F2BDBA" />
    <path
        d="M370.282 70.4273C366.245 67.0607 361.446 64.8267 356.031 63.7867L356.324 62.2767C362.001 63.3707 367.023 65.7126 371.268 69.2409L370.282 70.4273Z"
        fill="black" />
    <path
        d="M429.18 325.959L412.872 312.3C410.315 310.159 406.995 309.165 403.682 309.566C390.472 311.153 355.931 315.798 344.353 322.161C340.062 324.518 330.772 334.811 330.772 334.811C327.406 338.3 327.391 343.824 330.742 347.337L351.941 370.764C353.412 372.389 355.892 372.574 357.587 371.187L374.534 357.305C376.367 355.803 376.552 353.061 374.934 351.32L371.522 347.668C370.158 346.389 370.79 344.101 372.623 343.708L427.732 331.876C430.474 331.267 431.344 327.769 429.18 325.959ZM403.783 349.848C401.133 347.969 397.836 347.807 395.34 349.871L344.145 392.157C341.064 394.699 340.871 400.885 343.483 403.913C345.508 406.262 349.591 410.946 351.571 413.35C355.23 417.795 361.238 417.934 364.189 415.245L378.008 402.649C379.264 401.509 381.205 401.586 382.36 402.827L385.287 405.97C387.36 408.142 390.78 408.25 392.983 406.216L408.243 392.118C411.131 389.445 411.155 384.885 408.281 382.188L406.872 380.863C405.554 379.631 405.57 377.528 406.902 376.318L413.928 369.916C416.547 367.528 417.479 362.174 414.174 359.054C414.182 359.054 407.21 352.29 403.783 349.848Z"
        fill="#93B4F6" />
    <path
        d="M292.18 140.361C301.893 148.011 327.283 161.924 358.642 172.101L359.674 169.936C346.718 158.927 317.207 145.253 292.811 139.075C292.049 138.882 291.556 139.876 292.18 140.361Z"
        fill="black" />
    <path
        d="M257.238 368.26C261.644 362.683 300.576 399.006 313.772 412.464C336.357 435.49 369.157 480.056 361.254 482.136C356.331 483.431 325.881 466.375 293.736 430.036C269.278 402.38 254.519 371.704 257.238 368.26Z"
        fill="black" />
    <path
        d="M517.35 46.8616L516.21 39.9437C515.262 34.189 509.57 31.3695 504.07 33.3262C496.86 35.8838 487.508 38.9191 482.439 42.8634C480.429 44.4272 479.335 46.8924 479.543 49.4269C481.399 71.9449 483.525 89.4939 484.535 97.2438C484.889 99.994 483.98 102.76 482.054 104.755L459.561 128.151L482.37 139.815L525.068 100.025L517.35 46.8616Z"
        fill="#274D76" />
    <path
        d="M368.187 177.486L384.502 142.195C387.329 136.086 393.291 132.041 400.008 131.664L433.817 129.792C442.136 129.33 450.233 126.926 457.458 122.774C463.374 119.377 470.654 119.407 476.539 122.866C480.406 125.139 485.289 124.715 488.71 121.811L500.919 111.442C502.321 110.248 503.076 108.468 502.96 106.635C502.313 96.8202 500.257 64.6803 499.995 49.011C499.956 46.8308 501.181 44.8202 503.138 43.8649C511.264 39.8975 523.99 37.9639 533.742 39.6279C536.153 40.0362 538.04 42.016 538.194 44.4581C538.849 55.1508 531.547 66.6062 531.547 66.6062L537.979 114.962C539.396 125.624 534.844 136.201 526.131 142.503L485.513 171.87C482.432 174.096 479.227 176.161 475.915 178.033C468.05 182.493 459.638 185.913 450.895 188.201L419.767 196.344L368.187 177.486Z"
        fill="#FFF3A1" />
    <path
        d="M382.183 145.777L401.094 142.911L415.792 158.527L387.306 185.636L372.238 168.611L382.183 145.777Z"
        fill="#274D76" />
    <path
        d="M428.447 136.938C432.148 122.778 423.67 108.298 409.511 104.596C395.352 100.895 380.873 109.374 377.172 123.534C373.471 137.694 381.949 152.174 396.108 155.875C410.267 159.577 424.746 151.098 428.447 136.938Z"
        fill="#FFF3A1" />
    <path
        d="M334.963 120.517L339.978 112.774C340.825 111.465 340.309 109.708 338.884 109.069L336.789 108.129C335.525 107.559 335.363 105.833 336.504 105.04L358.897 89.517C360.029 88.7312 359.775 86.9902 358.465 86.5511L348.212 83.1691C346.995 82.7685 345.67 82.9457 344.6 83.6545L322.553 98.253C321.197 99.1466 320.104 100.379 319.364 101.82L316.267 107.86C314.704 110.91 316.044 114.646 319.187 116.002L331.812 121.464C332.96 121.965 334.293 121.557 334.963 120.517ZM361.439 117.096L360.298 116.388C359.282 115.756 358.897 114.469 359.39 113.383L360.899 110.07C361.785 108.129 361.03 105.833 359.166 104.793L354.105 101.974C352.118 100.872 349.614 101.589 348.528 103.584L333.237 131.456C332.221 133.313 332.783 135.639 334.539 136.825L339.954 140.469C341.95 141.81 344.669 141.147 345.832 139.044L350.215 131.055C350.87 129.869 352.38 129.468 353.535 130.169L354.136 130.539C355.453 131.348 357.179 130.855 357.872 129.476L362.394 120.54C363.025 119.315 362.602 117.82 361.439 117.096Z"
        fill="#93B4F6" />
    <path
        d="M448.106 143.52C440.696 136.903 429.395 137.295 422.455 144.398L401.826 165.522C400.216 167.17 397.843 167.825 395.617 167.24L364.951 159.189C362.833 158.635 360.915 157.495 359.413 155.9L350.608 146.563C349.876 145.785 348.559 145.924 348.089 146.879C347.604 147.857 347.303 149.46 347.804 152.056C348.913 157.833 345.562 157.818 342.158 155.091C340.401 153.689 337.682 151.501 335.464 149.706C333.777 148.343 331.288 149.56 331.281 151.724C331.265 154.359 331.643 157.379 333.16 159.066C330.064 168.357 335.263 179.388 343.498 183.841C353.004 188.98 404.237 204.811 404.237 204.811C409.213 206.282 414.598 204.903 418.257 201.228L448.892 170.46C456.41 162.926 456.048 150.615 448.106 143.52Z"
        fill="#FFF3A1" />
    <path
        d="M386.79 112.674C383.508 115.055 380.95 118.483 379.433 122.566C376.013 131.772 379.24 141.664 386.451 147.572C390.333 150.754 396.257 151.509 402.142 147.873C405.97 145.508 408.867 141.702 410.546 137.188C413.489 129.276 411.501 121.071 406.248 115.194C401.934 110.379 392.259 108.699 386.79 112.674Z"
        fill="black" />
    <path
        d="M194.959 411.077C192.016 399.861 188.742 385.409 187.017 380.501C186.947 380.309 186.708 379.777 186.531 379.662C184.983 378.629 175.893 374.277 165.371 376.033C162.112 376.58 150.927 375.54 146.452 378.937C145.065 379.985 144.542 381.757 144.418 383.49C143.787 392.835 142.231 421.708 142.493 431.454C142.539 433.202 143.74 434.774 145.458 435.121C164.416 438.98 186.462 437.201 196.283 429.782C197.37 428.958 197.978 427.656 197.855 426.292C197.608 423.681 196.931 418.588 194.959 411.077Z"
        fill="white" />
    <path
        d="M86.6371 336.251L55.3162 326.46C53.6908 325.951 52.674 324.334 52.9128 322.647L57.7504 288.804C58.0893 286.416 56.4332 284.205 54.0452 283.858L34.4792 280.869C33.5626 280.738 31.5906 281.424 31.5906 284.059C31.5906 285.345 31.9449 286.062 32.5997 286.847L36.1354 291.108C36.7979 291.901 37.0829 292.949 36.9135 293.966L32.7307 319.85L47.0508 350.349L81.8458 354.07L86.6371 336.251Z"
        fill="#274D76" />
    <path
        d="M24.758 292.587L51.9809 335.411C52.7127 336.567 53.8835 337.384 55.2161 337.684L61.317 339.04C63.343 339.487 65.4613 339.132 67.2253 338.054L69.5825 336.613C74.2583 333.747 79.9509 333.077 85.1659 334.78L122.511 346.959L111.595 381.002L74.7744 372.019C71.5776 371.241 68.4347 370.286 65.3458 369.154C60.7547 367.474 54.0376 364.909 49.9472 362.898C39.4016 357.714 35.9429 353.677 34.2251 350.457C28.7636 340.219 15.2678 317.015 13.5654 314.273C11.3546 310.713 6.49389 310.405 3.91334 309.735C2.31879 309.319 1.14792 308.618 0.50086 307.1L0.169631 306.33C-0.223228 305.413 0.0849064 304.35 0.901438 303.78L18.7881 291.285C20.7755 289.898 23.5255 290.491 24.758 292.587Z"
        fill="#FFF3A1" />
    <path
        d="M139.165 370.263L172.119 370.24C174.807 370.225 177.58 371.026 178.998 372.651C179.845 373.622 181.355 375.717 182.156 376.727C182.71 377.435 182.51 378.352 181.709 378.16L177.711 376.727L178.42 379.176C178.905 380.501 177.696 381.102 176.671 380.586L172.689 378.706C172.789 379.816 171.618 380.602 170.624 380.085C168.791 379.13 168.09 378.514 165.556 376.788C164.924 376.365 164.177 376.149 163.414 376.187C156.62 376.526 151.829 377.374 147.684 379.069C144.611 380.324 144.534 383.521 144.48 384.523C144.387 386.21 142.107 391.263 142.107 391.263L120.654 386.849L116.856 372.567L139.165 370.263Z"
        fill="#274D76" />
    <path
        d="M126.639 374.069C135.982 374.069 143.556 366.177 143.556 356.443C143.556 346.708 135.982 338.817 126.639 338.817C117.297 338.817 109.723 346.708 109.723 356.443C109.723 366.177 117.297 374.069 126.639 374.069Z"
        fill="#FFF3A1" />
    <path
        d="M133.996 398.058C133.996 398.058 123.589 416.439 122.025 427.301C121.525 430.799 124.074 434.011 127.587 434.427C130.699 434.789 135.513 434.967 142.762 434.389C141.714 431.115 144.102 402.01 145.127 390.247C145.266 388.667 143.317 387.82 142.246 388.991L133.996 398.058Z"
        fill="white" />
    <path
        d="M169.523 389.299C171.749 393.937 180.153 411.632 181.948 418.735C182.171 419.613 181.478 420.445 180.577 420.391C172.358 419.844 164.423 421.046 161.042 421.662C160.179 421.816 159.409 421.115 159.478 420.245L161.773 391.903C161.812 391.402 162.136 390.963 162.598 390.778L167.813 388.652C168.468 388.382 169.215 388.667 169.523 389.299Z"
        fill="white" />
    <path
        d="M180.014 413.011C176.209 403.058 168.976 388.174 168.976 388.174L167.273 388.868L175.346 420.253C177.588 420.229 179.93 420.368 182.271 420.591C182.164 419.097 181.278 416.331 180.014 413.011Z"
        fill="#93B4F6" />
    <path
        d="M182.279 420.591C182.272 420.46 176.063 415.422 176.063 415.422C175 414.613 173.567 414.505 172.404 415.145L160.271 421.793C163.199 421.231 172.735 419.667 182.279 420.591Z"
        fill="#274D76" />
    <path
        d="M120.901 361.62C120.616 364.693 121.301 367.582 122.665 370.009C123.581 371.634 125.307 372.682 127.179 372.682C127.186 372.682 127.202 372.682 127.21 372.682C135.637 372.682 142.469 365.564 142.469 356.782C142.469 356.766 142.469 356.743 142.469 356.728C142.454 353.022 139.804 349.871 136.299 349.286C135.228 349.109 134.112 349.063 132.964 349.163C126.632 349.741 121.509 355.033 120.901 361.62Z"
        fill="black" />
    <path
        d="M175.477 391.549L171.841 391.972C171.549 392.003 171.402 391.633 171.633 391.456L174.684 389.153C175.878 388.251 175.161 386.356 173.675 386.472C170.37 386.726 166.11 387.08 163.068 387.404C162.567 387.458 162.343 386.78 162.783 386.526C164.146 385.748 164.862 385.37 166.28 384.577C168.306 383.437 166.311 381.834 163.992 381.919C159.655 382.088 155.334 384.7 152.044 384.7C146.098 384.7 129.636 383.899 129.636 383.899C128.334 383.853 127.125 383.19 126.393 382.112L113.02 362.321C109.277 357.375 102.213 356.458 97.3368 360.287C92.7072 363.915 91.7135 370.533 95.0797 375.363L114.661 400.454C116.471 402.773 119.221 404.175 122.164 404.275L164.801 403.628C169.885 403.636 173.459 399.029 173.914 396.633C175.223 395.747 176.155 394.776 176.825 393.898C177.603 392.866 176.771 391.394 175.477 391.549Z"
        fill="#FFF3A1" />
    <path
        d="M123.011 209.248C123.011 209.248 126.632 222.853 135.76 241.295C148.701 267.434 155.018 277.903 161.673 289.128C169.777 302.794 194.519 316.653 242.256 287.079C291.718 256.441 284.176 236.257 280.895 229.231C278.953 225.071 263.201 195.628 250.128 173.279C245.029 164.559 240.214 157.109 237.01 152.302C234.345 148.304 230.062 145.708 225.286 145.169C212.267 143.697 184.69 143.844 156.335 164.389C117.242 192.724 123.011 209.248 123.011 209.248Z"
        fill="white" />
    <path
        d="M282.882 244.192C284.184 237.621 281.349 230.903 275.826 227.097C261.822 217.437 234.391 217.021 199.611 238.992C161.396 263.135 160.51 283.566 166.195 294.882C177.334 305.875 201.352 312.416 242.248 287.078C271.558 268.929 280.848 254.446 282.882 244.192Z"
        fill="#F2BDBA" />
    <path
        d="M173.351 294.135C168.598 287.333 168.506 266.024 204.179 243.075C240.137 219.941 271.682 226.52 276.319 238.992C280.956 251.464 255.12 274.306 226.341 288.927C200.304 302.162 178.62 301.677 173.351 294.135Z"
        fill="black" />
    <path
        d="M142.462 429.443C139.327 429.435 136.022 429.605 132.717 429.867C125.276 430.46 124.275 432.802 124.976 433.518C125.631 434.189 126.624 434.551 127.587 434.659C130.699 435.021 137.124 435.229 143.964 434.427C142.462 432.771 142.47 431.97 142.462 429.443Z"
        fill="black" />
    <path
        d="M194.789 383.575C192.563 380.825 191.292 381.164 187.225 381.102C188.95 387.065 191.954 399.63 194.959 411.085C197.963 422.533 197.978 428.357 197.978 428.357C201.753 427.856 204.795 427.294 212.183 426.054C218.214 425.037 218.753 420.045 215.634 415.422L194.789 383.575Z"
        fill="white" />
    <path
        d="M195.028 430.668C195.459 429.574 194.751 428.48 192.94 427.586C189.343 425.799 182.302 424.397 168.583 425.167C155.935 425.876 149.518 429.004 146.29 431.762C144.565 433.241 144.68 434.381 146.205 435.305C165.217 439.92 184.883 437.347 195.028 430.668Z"
        fill="#F2BDBA" />
    <path
        d="M212.968 426.192C214.494 425.799 214.732 424.166 213.939 423.596C213.6 423.357 213.2 423.111 212.722 422.864C208.971 420.938 202.977 420.961 197.246 421.647C197.97 426.1 198.101 427.17 197.285 428.68C201.953 428.357 212.514 426.308 212.968 426.192Z"
        fill="black" />
    <path
        d="M168.568 204.741C166.326 199.102 166.257 192.816 168.899 188.695C169.515 187.732 170.647 186.16 170.077 185.174L165.117 177.979C164.069 176.161 161.334 177.301 160.079 178.988C153.893 187.331 151.582 198.201 156.204 209.803C162.991 226.866 175.593 231.858 188.58 228.684C190.683 228.168 191.708 225.788 190.622 223.916L186.832 217.637C186 216.197 184.405 215.403 182.741 215.534C177.133 215.989 171.587 212.322 168.568 204.741ZM205.566 184.612C195.744 169.058 180.138 166.685 169.916 170.568C168.128 171.246 167.32 173.318 168.275 174.974L173.852 182.532C174.514 183.672 175.824 184.226 177.11 183.98C182.564 182.924 189.266 185.035 193.68 191.707C197.185 197.007 197.177 205.304 191.615 210.635C190.398 211.806 190.521 213.816 191.369 215.28L194.928 221.42C196.337 223.847 199.488 224.078 201.637 222.283C211.713 213.87 212.452 195.52 205.566 184.612Z"
        fill="#93B4F6" />
    <path
        d="M425.59 183.525C425.059 183.525 424.519 183.387 424.026 183.102C420.252 180.906 413.442 176.615 410.245 172.632C409.344 171.508 409.367 169.867 410.315 168.727L420.321 156.663C421.376 155.384 423.248 155.16 424.581 156.146C427.724 158.481 433.447 162.795 436.49 165.491C437.715 166.577 437.907 168.38 436.937 169.69C433.44 174.42 429.95 179.535 428.186 182.154C427.578 183.04 426.592 183.525 425.59 183.525ZM422.717 157.071C422.262 157.071 421.808 157.263 421.5 157.641L411.493 169.705C411.016 170.283 410.993 171.099 411.447 171.662C414.606 175.598 421.839 180.043 424.804 181.769C425.521 182.185 426.437 181.977 426.9 181.291C428.679 178.657 432.176 173.526 435.689 168.765C436.174 168.103 436.082 167.186 435.458 166.639C432.461 163.981 426.776 159.698 423.649 157.379C423.372 157.171 423.04 157.071 422.717 157.071Z"
        fill="black" />
    <path
        d="M571.187 457.777C570.994 457.777 570.802 457.769 570.602 457.746C568.999 457.592 567.559 456.814 566.55 455.566L549.949 434.959C547.977 432.509 548.263 428.942 550.589 426.831L568.938 410.245C570.147 409.151 571.703 408.612 573.321 408.728C574.946 408.843 576.41 409.59 577.457 410.831L595.02 431.762C597.123 434.265 596.792 438.009 594.296 440.113L574.992 456.367C573.914 457.292 572.581 457.777 571.187 457.777ZM551.629 427.979C549.903 429.543 549.695 432.178 551.151 433.996L567.751 454.603C568.499 455.528 569.562 456.105 570.748 456.221C571.934 456.337 573.09 455.974 573.999 455.212L593.303 438.957C595.151 437.401 595.39 434.627 593.842 432.771L576.279 411.84C575.508 410.915 574.415 410.361 573.213 410.284C572.011 410.207 570.856 410.6 569.97 411.409L551.629 427.979Z"
        fill="black" />
    <path
        d="M480.506 421.639L479.304 420.676L487.955 409.822C488.463 409.182 488.286 408.512 487.947 408.096C487.608 407.68 486.984 407.372 486.252 407.742L476.477 412.772C475.198 413.427 473.75 413.111 472.857 411.994C471.963 410.877 471.994 409.39 472.918 408.296L481.615 398.027C482.154 397.388 481.977 396.702 481.638 396.279C481.291 395.855 480.667 395.531 479.928 395.924L454.731 408.751L454.03 407.38L479.219 394.553C480.483 393.883 481.946 394.191 482.84 395.308C483.741 396.433 483.718 397.919 482.794 399.021L474.097 409.29C473.557 409.922 473.727 410.607 474.066 411.031C474.405 411.455 475.029 411.778 475.768 411.401L485.536 406.37C486.791 405.723 488.232 406.024 489.126 407.11C490.019 408.196 490.027 409.675 489.149 410.777L480.506 421.639Z"
        fill="black" />
    <path d="M522.443 437.613L511.199 467.935L512.644 468.47L523.888 438.148L522.443 437.613Z"
        fill="black" />
    <path d="M540.083 444.2L538.63 444.711L551.598 481.562L553.052 481.05L540.083 444.2Z"
        fill="black" />
    <path d="M539.547 469.711L538.022 469.936L540.698 488.052L542.222 487.827L539.547 469.711Z"
        fill="black" />
    <path d="M522.212 462.727L519.442 477.241L520.955 477.53L523.726 463.015L522.212 462.727Z"
        fill="black" />
    <path d="M398.913 171.764L397.559 172.499L411.536 198.255L412.89 197.52L398.913 171.764Z"
        fill="black" />
    <path d="M399 185.451L397.52 185.877L401.836 200.892L403.317 200.466L399 185.451Z" fill="black" />
    <path d="M392.033 174.206L390.698 196.77L392.236 196.861L393.571 174.297L392.033 174.206Z"
        fill="black" />
    <path
        d="M351.317 182.955L349.83 182.555L353.789 167.748C354.036 166.816 354.875 166.238 355.838 166.338C356.793 166.438 357.494 167.186 357.548 168.141L357.987 177.008C358.003 177.254 358.172 177.331 358.28 177.355C358.388 177.378 358.573 177.385 358.688 177.162L364.404 165.884L365.775 166.577L360.067 177.855C359.667 178.641 358.827 179.042 357.964 178.857C357.102 178.672 356.501 177.963 356.455 177.085L356.015 168.218C356 167.941 355.8 167.879 355.684 167.871C355.569 167.856 355.361 167.879 355.291 168.141L351.317 182.955Z"
        fill="black" />
    <path d="M509.686 105.423L509.444 106.945L531.99 110.539L532.233 109.017L509.686 105.423Z"
        fill="black" />
    <path d="M511.234 112.325L510.674 113.76L531.841 122.028L532.402 120.592L511.234 112.325Z"
        fill="black" />
    <path d="M511.533 118.275L510.365 119.28L525.334 136.675L526.502 135.67L511.533 118.275Z"
        fill="black" />
    <path
        d="M488.594 531.309L488.509 531.301L444.463 526.263L444.64 524.73L488.64 529.761C489.703 529.745 490.281 529.013 490.473 528.335C490.666 527.65 490.535 526.71 489.595 526.155L438.909 502.228C437.33 501.288 436.736 499.524 437.399 497.89C438.061 496.257 439.725 495.402 441.435 495.818L481.638 504.762C482.793 505.039 483.556 504.361 483.864 503.691C484.165 503.036 484.195 502.043 483.302 501.349L449.624 484.702L450.309 483.323L484.165 500.071C485.751 501.234 485.859 503.052 485.266 504.338C484.673 505.625 483.217 506.719 481.299 506.264L441.096 497.32C439.887 497.028 439.124 497.759 438.832 498.476C438.539 499.185 438.578 500.24 439.633 500.872L490.319 524.799C491.768 525.662 492.384 527.195 491.96 528.751C491.521 530.308 490.204 531.309 488.594 531.309Z"
        fill="black" />
    <path
        d="M109.246 385.948C109.084 385.948 108.922 385.94 108.761 385.917C107.798 385.778 106.943 385.231 106.411 384.415L102.375 378.229C101.366 376.688 101.789 374.593 103.322 373.568L108.707 369.955C110.247 368.923 112.343 369.331 113.382 370.856L117.119 376.326C118.097 377.759 117.835 379.685 116.518 380.809L111.441 385.139C110.825 385.671 110.047 385.948 109.246 385.948ZM110.594 370.933C110.24 370.933 109.885 371.033 109.569 371.241L104.185 374.854C103.353 375.417 103.122 376.549 103.669 377.397L107.705 383.583C107.998 384.03 108.46 384.322 108.984 384.399C109.516 384.476 110.039 384.322 110.44 383.976L115.516 379.646C116.233 379.03 116.379 377.982 115.84 377.204L112.104 371.734C111.765 371.211 111.179 370.933 110.594 370.933Z"
        fill="black" />
    <path d="M123.849 386.534L115.416 395.373L116.53 396.437L124.964 387.597L123.849 386.534Z"
        fill="black" />
    <path d="M121.279 394.636L119.031 399.179L120.412 399.863L122.66 395.319L121.279 394.636Z"
        fill="black" />
    <path d="M127.443 386.368L124.299 401.372L125.806 401.688L128.95 386.684L127.443 386.368Z"
        fill="black" />
    <path
        d="M144.981 398.482C144.942 398.482 144.911 398.482 144.873 398.482C143.848 398.436 142.978 397.781 142.654 396.81L141.283 392.666L142.747 392.18L144.118 396.325C144.303 396.872 144.788 396.941 144.934 396.941C145.081 396.941 145.574 396.926 145.805 396.394L147.138 393.274C147.461 392.519 148.131 391.98 148.94 391.834C149.749 391.687 150.565 391.942 151.135 392.527L155.164 396.656C155.519 397.018 155.95 396.98 156.243 396.818C156.535 396.656 156.805 396.31 156.689 395.817L154.818 387.805L156.32 387.458L158.192 395.47C158.446 396.548 157.96 397.635 156.99 398.166C156.012 398.698 154.841 398.52 154.063 397.727L150.034 393.598C149.818 393.374 149.518 393.282 149.225 393.344C148.925 393.398 148.678 393.598 148.563 393.875L147.23 396.995C146.837 397.912 145.967 398.482 144.981 398.482Z"
        fill="black" />
    <path d="M45.6785 336.718L34.647 340.504L35.1471 341.961L46.1786 338.175L45.6785 336.718Z"
        fill="black" />
    <path d="M42.6267 341.629L36.6958 346.57L37.6818 347.754L43.6127 342.813L42.6267 341.629Z"
        fill="black" />
    <path d="M47.0231 341.928L42.4126 353.79L43.8486 354.348L48.4591 342.486L47.0231 341.928Z"
        fill="black" />
    <path
        d="M5.70058 307.362C5.53111 307.362 5.35395 307.347 5.18448 307.308L3.85181 307.016L4.18304 305.513L5.51571 305.806C5.76221 305.86 6.01639 305.806 6.21667 305.668C6.42466 305.521 6.55564 305.306 6.58645 305.051L6.7251 303.973C6.81754 303.287 7.19498 302.671 7.76501 302.278C8.33504 301.885 9.05141 301.762 9.72158 301.924L12.3715 302.578C12.6565 302.648 12.9492 302.578 13.1649 302.386C13.3883 302.193 13.4962 301.916 13.473 301.623L13.3421 300.144C13.2727 299.358 13.5732 298.603 14.1663 298.087C14.7594 297.571 15.5451 297.371 16.3155 297.556L18.0487 297.964C18.3337 298.033 18.6187 297.956 18.8421 297.764C19.0578 297.571 19.1734 297.294 19.1425 297.001C19.0578 296.153 19.4121 295.345 20.09 294.828C20.7679 294.312 21.646 294.189 22.4395 294.497L24.4269 295.26L23.8723 296.7L21.8848 295.938C21.5921 295.822 21.2763 295.868 21.0221 296.061C20.7679 296.254 20.6446 296.546 20.6755 296.862C20.7525 297.656 20.4521 298.403 19.8589 298.927C19.2658 299.451 18.4724 299.651 17.7021 299.466L15.9689 299.058C15.6838 298.996 15.3988 299.066 15.1754 299.25C14.9597 299.443 14.8442 299.713 14.875 300.005L15.006 301.484C15.0753 302.27 14.7671 303.041 14.1663 303.549C13.5655 304.057 12.7566 304.258 11.994 304.065L9.34414 303.41C9.09764 303.349 8.84344 303.395 8.62775 303.541C8.41207 303.688 8.28111 303.903 8.2426 304.165L8.10395 305.244C8.01151 305.914 7.64946 306.523 7.08713 306.916C6.68657 307.208 6.20128 307.362 5.70058 307.362Z"
        fill="black" />
    <path
        d="M508.584 56.1446C508.561 56.1446 508.545 56.1446 508.522 56.1446C507.736 56.1215 507.058 55.6593 506.75 54.9429L505.502 52.0463C505.395 51.7998 505.179 51.7689 505.086 51.7689C505.086 51.7689 505.086 51.7689 505.079 51.7689C504.986 51.7689 504.763 51.7997 504.663 52.054L503.268 55.536L501.836 54.966L503.23 51.4839C503.53 50.7289 504.247 50.2436 505.056 50.2282C505.063 50.2282 505.071 50.2282 505.079 50.2282C505.88 50.2282 506.596 50.6981 506.912 51.43L508.16 54.3266C508.26 54.5654 508.476 54.5962 508.568 54.6039C508.653 54.6039 508.869 54.5885 508.984 54.3497L509.885 52.547C510.186 51.9461 510.764 51.5378 511.426 51.4608C512.096 51.3761 512.751 51.6303 513.182 52.1464L514.669 53.8798C514.831 54.0646 515.031 54.0415 515.108 54.0261C515.185 54.0107 515.378 53.9491 515.447 53.7103L516.348 50.6981C516.549 50.0356 517.065 49.5272 517.743 49.3423C518.413 49.1574 519.121 49.3346 519.622 49.8122L522.534 52.5393C522.703 52.7011 522.904 52.6703 522.981 52.6395C523.058 52.6164 523.235 52.5393 523.289 52.3082L523.859 49.843C524.021 49.1574 524.506 48.6181 525.176 48.3947C525.846 48.1713 526.563 48.3177 527.094 48.7722L529.182 50.5518C529.367 50.7058 529.559 50.6596 529.636 50.6288C529.713 50.598 529.89 50.5132 529.929 50.2744L530.322 47.8323C530.437 47.1082 530.946 46.5073 531.639 46.2685C532.34 46.0297 533.103 46.1915 533.642 46.6922C533.842 46.8771 534.05 46.8078 534.135 46.7769C534.22 46.7384 534.405 46.6306 534.405 46.3609V44.6045H535.945V46.3609C535.945 47.1698 535.491 47.8632 534.751 48.1867C534.012 48.5103 533.187 48.3716 532.594 47.8246C532.417 47.6552 532.217 47.7014 532.14 47.7322C532.063 47.7553 531.878 47.8478 531.839 48.0866L531.446 50.5286C531.331 51.2451 530.853 51.8306 530.168 52.0848C529.482 52.339 528.743 52.208 528.188 51.7304L526.101 49.9509C525.923 49.8045 525.738 49.843 525.661 49.8661C525.592 49.8892 525.415 49.974 525.361 50.1974L524.791 52.6626C524.629 53.3636 524.121 53.9106 523.428 54.1263C522.734 54.3343 522.01 54.1648 521.479 53.6718L518.567 50.9446C518.397 50.7906 518.213 50.8214 518.136 50.8368C518.059 50.8599 517.881 50.9292 517.82 51.1449L516.918 54.1571C516.71 54.8581 516.133 55.382 515.424 55.536C514.708 55.6901 513.968 55.4359 513.498 54.8812L512.011 53.1479C511.865 52.9784 511.688 52.9861 511.611 52.9938C511.542 53.0015 511.357 53.0478 511.257 53.2403L510.355 55.043C510.024 55.7209 509.346 56.1446 508.584 56.1446Z"
        fill="black" />
    <path d="M506.328 44.4331L505.552 45.764L512.905 50.0527L513.681 48.7218L506.328 44.4331Z"
        fill="black" />
    <path d="M513.251 41.5991L512.503 42.946L522.059 48.2544L522.807 46.9075L513.251 41.5991Z"
        fill="black" />
    <path d="M521.988 40.6525L521.327 42.0446L529.192 45.7756L529.852 44.3835L521.988 40.6525Z"
        fill="black" />
    <path
        d="M442.468 641.364L441.05 640.763L443.407 635.217C443.978 633.876 445.102 632.882 446.504 632.482C447.906 632.081 449.385 632.335 450.579 633.175L453.029 634.901C453.884 635.502 454.939 635.664 455.933 635.325C456.926 634.993 457.674 634.231 457.997 633.237L458.421 631.919C458.898 630.417 460.092 629.254 461.595 628.799C463.097 628.345 464.737 628.661 465.962 629.639L468.45 631.619C469.305 632.297 470.392 632.505 471.431 632.181C472.471 631.866 473.257 631.08 473.581 630.04L474.22 627.983C474.69 626.473 475.822 625.325 477.332 624.847C478.842 624.362 480.429 624.639 481.692 625.595L484.55 627.759C485.413 628.414 486.499 628.599 487.531 628.26C488.563 627.921 489.326 627.128 489.634 626.088L490.705 622.444C491.175 620.849 492.407 619.632 494.009 619.178C495.604 618.731 497.299 619.131 498.531 620.248L500.827 622.336C501.682 623.114 502.86 623.384 503.969 623.037C505.079 622.698 505.903 621.82 506.18 620.695C506.589 619.016 507.821 617.714 509.485 617.229C511.141 616.743 512.882 617.159 514.138 618.353L517.712 621.751L516.649 622.868L513.075 619.47C512.219 618.661 511.041 618.376 509.916 618.708C508.792 619.039 507.952 619.917 507.675 621.065C507.274 622.729 506.057 624.015 504.424 624.516C502.791 625.017 501.058 624.632 499.794 623.476L497.499 621.389C496.667 620.626 495.519 620.356 494.433 620.664C493.347 620.973 492.507 621.797 492.191 622.875L491.121 626.519C490.674 628.029 489.518 629.223 488.024 629.716C486.522 630.209 484.881 629.932 483.625 628.984L480.768 626.82C479.913 626.173 478.834 625.988 477.81 626.311C476.785 626.635 476.015 627.413 475.699 628.437L475.06 630.494C474.59 632.004 473.403 633.183 471.894 633.653C470.384 634.115 468.743 633.807 467.503 632.821L465.015 630.841C464.167 630.163 463.089 629.955 462.049 630.271C461.009 630.587 460.223 631.357 459.892 632.389L459.468 633.707C458.999 635.178 457.889 636.295 456.426 636.788C454.962 637.281 453.406 637.05 452.143 636.157L449.693 634.431C448.884 633.861 447.883 633.691 446.928 633.961C445.98 634.231 445.21 634.909 444.825 635.818L442.468 641.364Z"
        fill="black" />
    <path
        d="M392.128 603.192H390.587V595.804C390.587 594.788 390.063 593.879 389.193 593.362C388.322 592.846 387.267 592.831 386.381 593.316L383.123 595.111C381.752 595.866 380.126 595.843 378.786 595.042C377.438 594.248 376.637 592.839 376.637 591.275V588.732C376.637 587.77 376.175 586.907 375.373 586.367C374.572 585.828 373.594 585.736 372.708 586.113L368.525 587.862C367.17 588.432 365.629 588.286 364.412 587.469C363.187 586.652 362.455 585.289 362.455 583.825V582.986C362.455 582.023 362.001 581.167 361.2 580.628C360.399 580.089 359.428 579.989 358.542 580.359L354.537 581.999C353.181 582.554 351.648 582.4 350.438 581.583C349.221 580.767 348.497 579.411 348.497 577.947C348.497 576.977 348.035 576.114 347.226 575.582C346.417 575.043 345.439 574.958 344.553 575.336L341.441 576.653C340.24 577.162 338.891 577.108 337.736 576.514C336.581 575.921 335.749 574.858 335.464 573.587L335.063 571.831C334.87 570.999 334.331 570.305 333.576 569.928C332.814 569.543 331.936 569.519 331.158 569.866L325.627 572.293L325.01 570.883L330.541 568.456C331.743 567.932 333.106 567.963 334.277 568.556C335.448 569.15 336.288 570.22 336.581 571.499L336.981 573.256C337.166 574.08 337.705 574.766 338.452 575.151C339.2 575.536 340.078 575.567 340.856 575.243L343.968 573.926C345.324 573.348 346.864 573.495 348.097 574.311C349.322 575.128 350.053 576.491 350.053 577.963C350.053 578.926 350.508 579.781 351.309 580.32C352.11 580.859 353.073 580.952 353.967 580.59L357.972 578.949C359.328 578.394 360.861 578.548 362.07 579.365C363.287 580.181 364.011 581.537 364.011 583.001V583.841C364.011 584.804 364.474 585.666 365.275 586.206C366.076 586.745 367.054 586.837 367.94 586.46L372.123 584.711C373.479 584.149 375.019 584.295 376.236 585.104C377.461 585.921 378.185 587.284 378.185 588.748V591.29C378.185 592.307 378.709 593.216 379.579 593.732C380.45 594.248 381.505 594.264 382.391 593.778L385.65 591.983C387.021 591.228 388.646 591.252 389.986 592.053C391.334 592.846 392.135 594.256 392.135 595.82V603.192H392.128Z"
        fill="black" />
    <path
        d="M565.348 367.012C558.23 378.568 539.281 384.623 530.052 372.204C519.799 358.399 527.11 329.041 548.447 327.808C553.316 327.523 558.169 329.118 562.005 332.292C571.742 340.357 573.328 354.054 565.348 367.012Z"
        fill="black" />
    <path
        d="M541.014 351.713C538.395 359.809 535.391 368.761 531.624 364.17C529.282 361.311 527.857 354.44 529.528 347.907C530.846 342.761 534.528 337.823 538.187 335.234C540.082 333.894 542 333.586 543.533 334.402C547.446 336.475 543.949 342.63 541.014 351.713Z"
        fill="#74BAAB" />
    <path
        d="M393.083 126.834C389.131 131.063 384.687 135.693 382.861 130.871C381.729 127.874 382.26 122.597 385.11 118.984C387.352 116.133 391.373 114.516 394.816 114.462C396.603 114.439 398.152 115.116 399.153 116.372C401.68 119.569 397.512 122.088 393.083 126.834Z"
        fill="#74BAAB" />
    <path
        d="M134.897 359.077C134.951 356.312 135.059 353.246 137.177 354.37C138.495 355.071 141.029 360.626 138.125 364.023C137.578 364.663 136.769 364.863 136.037 364.732C134.181 364.408 134.836 362.174 134.897 359.077Z"
        fill="#74BAAB" />
    <path
        d="M190.321 430.945C190.653 430.229 190.059 429.528 188.58 428.981C185.63 427.895 179.891 427.117 168.76 427.887C158.5 428.596 153.346 430.76 150.766 432.617C149.387 433.611 149.495 434.358 150.758 434.92C166.272 437.555 182.195 435.49 190.321 430.945Z"
        fill="black" />
    <path
        d="M459.977 364.971C458.691 359.231 455.155 341.598 455.116 341.42L456.626 341.12C456.665 341.297 460.193 358.908 461.479 364.632L459.977 364.971Z"
        fill="black" />
    <path
        d="M475.591 366.843C474.004 364.539 472.618 361.473 471.786 358.438C471.493 357.375 471.223 356.342 470.969 355.349C469.667 350.364 468.643 346.42 466.155 344.147L467.195 343.007C470.022 345.588 471.1 349.725 472.464 354.956C472.718 355.942 472.987 356.966 473.28 358.022C474.074 360.903 475.375 363.8 476.87 365.964L475.591 366.843Z"
        fill="black" />
    <path
        d="M482.902 367.197L481.361 367.151C481.399 365.941 481.284 364.362 481.168 362.69C481.053 360.972 480.914 359.031 480.914 357.151C480.914 353.723 481.761 350.38 483.179 348.192L484.473 349.032C483.21 350.981 482.455 354.008 482.455 357.151C482.455 358.969 482.578 360.811 482.701 362.582C482.824 364.293 482.94 365.91 482.902 367.197Z"
        fill="black" />
    <path
        d="M532.81 428.472C531.177 428.472 529.567 427.787 528.435 426.469L515.609 411.478L516.78 410.476L529.605 425.468C531.092 427.209 533.734 427.44 535.498 425.976L573.706 391.179C575.801 389.384 578.158 387.881 580.723 386.71L581.363 388.113C578.929 389.222 576.695 390.647 574.723 392.334L536.507 427.139C535.429 428.033 534.112 428.472 532.81 428.472Z"
        fill="black" />
    <path
        d="M535.352 495.487C528.766 495.487 521.825 492.644 515.832 485.048L501.073 468.709L502.213 467.676L517.011 484.055C527.841 497.775 541.9 495.055 550.643 488.577C557.637 483.392 567.374 475.103 579.583 463.932L580.623 465.073C568.375 476.274 558.592 484.601 551.559 489.817C547.107 493.106 541.376 495.487 535.352 495.487Z"
        fill="black" />
    <path
        d="M439.44 369.562C438.585 368.06 437.877 366.558 437.145 364.678L438.585 364.123C439.294 365.949 439.949 367.351 440.781 368.8L439.44 369.562Z"
        fill="black" />
    <path
        d="M448.515 366.866C447.267 364.532 444.925 359.694 443.261 353.546L444.748 353.146C446.365 359.147 448.653 363.861 449.87 366.134L448.515 366.866Z"
        fill="black" />
    <path
        d="M554.841 389.484C542.385 389.484 530.953 382.681 525.007 371.727L526.362 370.987C532.04 381.441 542.955 387.943 554.841 387.943V389.484Z"
        fill="black" />
    <path
        d="M346.009 157.649C344.784 157.649 343.282 156.986 341.688 155.707C339.931 154.305 337.212 152.11 334.986 150.322L335.956 149.121C338.183 150.916 340.894 153.103 342.65 154.505C344.291 155.823 345.886 156.408 346.618 155.961C347.28 155.561 347.434 154.197 347.057 152.21C346.602 149.837 346.718 147.934 347.411 146.54L348.79 147.225C348.42 147.973 348.081 149.39 348.566 151.917C349.098 154.69 348.713 156.493 347.411 157.279C347.003 157.525 346.525 157.649 346.009 157.649Z"
        fill="black" />
    <path
        d="M402.381 166.061L401.279 164.983L421.908 143.859C429.149 136.44 440.889 136.04 448.623 142.942L447.598 144.09C440.48 137.735 429.68 138.104 423.017 144.93L402.381 166.061Z"
        fill="black" />
    <path d="M448.344 169.925L427.413 190.959L428.505 192.046L449.436 171.012L448.344 169.925Z"
        fill="black" />
    <path
        d="M117.088 369.716L112.389 362.76C110.733 360.572 108.275 359.147 105.51 358.785C102.744 358.43 100.01 359.178 97.8145 360.895L96.8669 359.686C99.3936 357.706 102.529 356.843 105.71 357.259C108.892 357.675 111.703 359.308 113.644 361.866L118.366 368.853L117.088 369.716Z"
        fill="black" />
    <path d="M142.808 406.996L141.895 424.938L143.434 425.016L144.346 407.074L142.808 406.996Z"
        fill="black" />
    <path d="M189.171 384.999L187.677 385.375L195.208 415.256L196.702 414.88L189.171 384.999Z"
        fill="black" />
</svg>